<svg xmlns="http://www.w3.org/2000/svg" width="1200" height="500" viewBox="0 0 1200 500">
  <rect width="1200" height="500" fill="#f2e8cf"/>
  <g opacity="0.08" fill="#2b211e">
    <path d="M0 80h1200v2H0z"/>
    <path d="M0 160h1200v2H0z"/>
    <path d="M0 240h1200v2H0z"/>
    <path d="M0 320h1200v2H0z"/>
    <path d="M0 400h1200v2H0z"/>
  </g>
  <g transform="translate(120,88)">
    <rect width="324" height="324" rx="72" fill="#1a1512"/>
    <rect x="18" y="18" width="288" height="288" rx="62" fill="#bc6c25" opacity="0.25"/>
    <circle cx="162" cy="162" r="112" fill="#39ff14" opacity="0.08"/>
    <path d="M162 74c30 0 54 24 54 54 0 15-6 28-15 38 24 4 41 24 41 49 0 28-23 51-51 51h-58c-28 0-51-23-51-51 0-25 17-45 41-49-9-10-15-23-15-38 0-30 24-54 54-54z" fill="#f2e8cf" opacity="0.8"/>
  </g>
  <text x="660" y="220" font-family="Syne, ui-sans-serif, system-ui" font-size="120" font-weight="800" letter-spacing="8" fill="#2b211e">TRIBOON</text>
  <text x="660" y="280" font-family="Space Mono, ui-monospace, monospace" font-size="22" letter-spacing="6" fill="#bc6c25">THE BEAT OF THE BLOCKCHAIN</text>
  <text x="660" y="330" font-family="Space Mono, ui-monospace, monospace" font-size="16" letter-spacing="3" fill="#2b211e" opacity="0.55">(Replace this placeholder with your official full logo)</text>
</svg>

