<svg xmlns="http://www.w3.org/2000/svg" width="512" height="512" viewBox="0 0 512 512">
  <defs>
    <linearGradient id="g" x1="0" y1="0" x2="1" y2="1">
      <stop offset="0" stop-color="#bc6c25"/>
      <stop offset="1" stop-color="#2b211e"/>
    </linearGradient>
  </defs>
  <rect width="512" height="512" rx="96" fill="#1a1512"/>
  <rect x="28" y="28" width="456" height="456" rx="84" fill="url(#g)" opacity="0.22"/>
  <circle cx="256" cy="256" r="168" fill="#fbf8f3" opacity="0.08"/>
  <circle cx="256" cy="256" r="120" fill="#39ff14" opacity="0.10"/>
  <path d="M256 122c44 0 80 36 80 80 0 22-9 42-23 57 35 6 61 36 61 73 0 41-33 74-74 74H212c-41 0-74-33-74-74 0-37 26-67 61-73-14-15-23-35-23-57 0-44 36-80 80-80z" fill="#fbf8f3" opacity="0.75"/>
  <text x="256" y="480" text-anchor="middle" font-family="Space Mono, ui-monospace, monospace" font-size="22" letter-spacing="4" fill="#f2e8cf" opacity="0.8">TRIBOON</text>
</svg>

