<svg xmlns="http://www.w3.org/2000/svg" width="512" height="512" viewBox="0 0 512 512">
  <defs>
    <linearGradient id="gold" x1="0" y1="0" x2="1" y2="1">
      <stop offset="0" stop-color="#d4a373"/>
      <stop offset="1" stop-color="#bc6c25"/>
    </linearGradient>
  </defs>
  <rect width="512" height="512" rx="96" fill="#1a1512"/>
  <path d="M256 96c92 0 168 76 168 168s-56 176-168 176S88 356 88 264 164 96 256 96z" fill="url(#gold)" opacity="0.85"/>
  <path d="M192 232c0 18 14 32 32 32s32-14 32-32-14-32-32-32-32 14-32 32zm96 0c0 18 14 32 32 32s32-14 32-32-14-32-32-32-32 14-32 32z" fill="#1a1512" opacity="0.85"/>
  <path d="M176 336c22 26 52 42 80 42s58-16 80-42" fill="none" stroke="#1a1512" stroke-width="14" stroke-linecap="round" opacity="0.85"/>
</svg>

